<svg viewBox="0 0 300 500" xmlns="http://www.w3.org/2000/svg">
  <rect x="0" y="200" width="100" height="100" fill="#00FFFF"/>
  <rect x="100" y="100" width="100" height="200" fill="#FF0000"/>
  <rect x="100" y="0" width="100" height="100" fill="#00FF00"/>
  <rect x="200" y="200" width="100" height="100" fill="#00FFFF"/>
  <rect x="0" y="200" width="100" height="200" fill="#FF0000"/>
  <rect x="0" y="100" width="100" height="100" fill="#00FF00"/>
  <rect x="100" y="300" width="100" height="100" fill="#00FFFF"/>
  <rect x="200" y="200" width="100" height="200" fill="#FF0000"/>
  <rect x="200" y="100" width="100" height="100" fill="#00FF00"/>
  <rect x="0" y="400" width="100" height="100" fill="#00FFFF"/>
  <rect x="100" y="300" width="100" height="200" fill="#FF0000"/>
  <rect x="100" y="200" width="100" height="100" fill="#00FF00"/>
  <rect x="200" y="400" width="100" height="100" fill="#00FFFF"/>
  <path d="M0 300 300 300" stroke="#000000" stroke-dasharray="1,4"/>
  <path d="M0 400 300 400" stroke="#000000" stroke-dasharray="1,4"/>
  <path d="M100 200 100 500" stroke="#000000" stroke-dasharray="1,4"/>
  <path d="M200 200 200 500" stroke="#000000" stroke-dasharray="1,4"/>
</svg>
