<svg viewBox="0 0 540 470" xmlns="http://www.w3.org/2000/svg">
  <polygon points="270,200 180,245 270,290 360,245" fill="#00FFFF"/>
  <polygon points="360,45 270,90 360,135 450,90" fill="#00FF00"/>
  <polygon points="270,90 270,290 360,335 360,135" fill="#FF0000"/>
  <polygon points="450,290 450,90 360,135 360,335" fill="#FFFF00"/>
  <polygon points="450,290 360,335 450,380 540,335" fill="#00FFFF"/>
  <polygon points="180,45 90,90 180,135 270,90" fill="#00FF00"/>
  <polygon points="90,90 90,290 180,335 180,135" fill="#FF0000"/>
  <polygon points="270,290 270,90 180,135 180,335" fill="#FFFF00"/>
  <polygon points="270,290 180,335 270,380 360,335" fill="#00FFFF"/>
  <polygon points="360,135 270,180 360,225 450,180" fill="#00FF00"/>
  <polygon points="270,180 270,380 360,425 360,225" fill="#FF0000"/>
  <polygon points="450,380 450,180 360,225 360,425" fill="#FFFF00"/>
  <polygon points="90,290 0,335 90,380 180,335" fill="#00FFFF"/>
  <polygon points="180,135 90,180 180,225 270,180" fill="#00FF00"/>
  <polygon points="90,180 90,380 180,425 180,225" fill="#FF0000"/>
  <polygon points="270,380 270,180 180,225 180,425" fill="#FFFF00"/>
  <polygon points="270,380 180,425 270,470 360,425" fill="#00FFFF"/>
  <path d="M180 245 450 380" stroke="#000000" stroke-dasharray="1,4"/>
  <path d="M90 290 360 425" stroke="#000000" stroke-dasharray="1,4"/>
  <path d="M360 245 90 380" stroke="#000000" stroke-dasharray="1,4"/>
  <path d="M450 290 180 425" stroke="#000000" stroke-dasharray="1,4"/>
</svg>
